<svg width="168" height="32" viewBox="0 0 168 32" fill="none" xmlns="http://www.w3.org/2000/svg">
<path d="M8.62982 15.5334C8.35145 13.8067 6.77401 12.4534 4.8718 12.4534C2.78401 12.4534 1.06738 14.0867 1.06738 16.0467C1.06738 18.0534 2.78401 19.64 4.8718 19.64C6.77401 19.64 8.35145 18.2867 8.62982 16.56H44.0759V15.44H8.62982V15.5334ZM4.8718 18.6134C3.38715 18.6134 2.22727 17.4934 2.22727 16.0934C2.22727 14.6934 3.43355 13.5734 4.8718 13.5734C6.35645 13.5734 7.51634 14.6934 7.51634 16.0934C7.51634 17.4934 6.31006 18.6134 4.8718 18.6134Z" fill="url(#paint0_linear_35_497)"/>
<path d="M40.132 7.41335C42.2198 7.41335 43.9364 5.78002 43.9364 3.82002C43.9364 1.81335 42.2198 0.226685 40.132 0.226685C38.137 0.226685 36.5131 1.67335 36.3276 3.54002H0V4.66002H36.4203C36.7915 6.20002 38.3226 7.41335 40.132 7.41335ZM40.132 1.25335C41.6166 1.25335 42.7765 2.37335 42.7765 3.77335C42.7765 5.17335 41.6166 6.29335 40.132 6.29335C38.9721 6.29335 37.9514 5.54668 37.6266 4.56668H39.436L38.0906 3.44668H37.5338C37.7194 2.23335 38.7865 1.25335 40.132 1.25335Z" fill="url(#paint1_linear_35_497)"/>
<path d="M40.132 24.54C38.2298 24.54 36.6523 25.8934 36.374 27.62H0V28.6934H36.374C36.6523 30.42 38.2298 31.7734 40.132 31.7734C42.2198 31.7734 43.9364 30.14 43.9364 28.18C43.9828 26.1734 42.2662 24.54 40.132 24.54ZM40.132 30.7C38.8793 30.7 37.8122 29.86 37.5338 28.74H38.0442L38.9257 27.62H37.5338C37.8122 26.5 38.8793 25.66 40.132 25.66C41.6166 25.66 42.7765 26.78 42.7765 28.18C42.8229 29.5334 41.6166 30.7 40.132 30.7Z" fill="url(#paint2_linear_35_497)"/>
<path d="M53.0586 8.21673C53.0586 4.39006 56.1671 1.5434 60.4355 1.5434C64.6574 1.5434 67.7659 4.39006 67.7659 8.21673C67.7659 12.0434 64.6574 14.8901 60.4355 14.8901C56.1671 14.8901 53.0586 12.0434 53.0586 8.21673ZM65.7245 8.21673C65.7245 5.3234 63.4512 3.17673 60.3891 3.17673C57.2806 3.17673 55.0072 5.3234 55.0072 8.21673C55.0072 11.1101 57.2806 13.2567 60.3891 13.2567C63.4512 13.2101 65.7245 11.1101 65.7245 8.21673Z" fill="#2E4BDE"/>
<path d="M81.2667 9.80337C81.2667 12.8367 79.0397 14.8434 75.9776 14.8434C74.4929 14.8434 73.1939 14.2834 72.3124 13.2567V18.39H70.4102V4.8567H72.2196V6.44337C73.0547 5.32337 74.4002 4.76337 75.9312 4.76337C79.0397 4.76337 81.2667 6.77003 81.2667 9.80337ZM79.3645 9.80337C79.3645 7.70337 77.8334 6.35003 75.8384 6.35003C73.8434 6.35003 72.3124 7.75003 72.3124 9.80337C72.3124 11.9034 73.8434 13.3034 75.8384 13.3034C77.8334 13.2567 79.3645 11.9034 79.3645 9.80337Z" fill="#2E4BDE"/>
<path d="M89.7582 14.1434C89.2015 14.6101 88.3199 14.8434 87.4848 14.8434C85.397 14.8434 84.1908 13.7234 84.1908 11.7634V6.30339H82.4277V4.81006H84.1908V2.66339H86.093V4.81006H89.1087V6.30339H86.093V11.6701C86.093 12.7434 86.6961 13.3501 87.7168 13.3501C88.2735 13.3501 88.7839 13.1634 89.2015 12.8834L89.7582 14.1434Z" fill="#2E4BDE"/>
<path d="M91.7061 1.77671C91.7061 1.12338 92.2628 0.610046 93.0051 0.610046C93.7475 0.610046 94.3042 1.12338 94.3042 1.73005C94.3042 2.38338 93.7938 2.94338 93.0051 2.94338C92.2628 2.94338 91.7061 2.43005 91.7061 1.77671ZM92.0308 4.85671H93.933V14.75H92.0308V4.85671Z" fill="#2E4BDE"/>
<path d="M117.177 1.68341L112.584 14.7501H110.496L106.738 4.29674L102.98 14.7501H100.892L96.2988 1.68341H98.3402L102.052 12.3234L105.949 1.68341H107.758L111.563 12.3701L115.367 1.68341H117.177Z" fill="#2E4BDE"/>
<path d="M127.895 10.3634H119.405C119.637 12.0901 121.121 13.2567 123.209 13.2567C124.415 13.2567 125.436 12.8834 126.225 12.0434L127.292 13.2101C126.364 14.2367 124.926 14.7967 123.163 14.7967C119.776 14.7967 117.549 12.6967 117.549 9.75674C117.549 6.81674 119.776 4.71674 122.791 4.71674C125.807 4.71674 127.941 6.77007 127.941 9.8034C127.941 9.99007 127.941 10.2234 127.895 10.3634ZM119.451 9.1034H126.132C125.946 7.4234 124.601 6.25674 122.791 6.25674C120.982 6.25674 119.637 7.4234 119.451 9.1034Z" fill="#2E4BDE"/>
<path d="M141.396 9.80341C141.396 12.8367 139.169 14.8434 136.107 14.8434C134.576 14.8434 133.23 14.2834 132.395 13.1634V14.7501H130.586V0.890076H132.488V6.35008C133.37 5.27674 134.669 4.76341 136.153 4.76341C139.169 4.76341 141.396 6.77008 141.396 9.80341ZM139.494 9.80341C139.494 7.70341 137.963 6.35008 135.968 6.35008C133.973 6.35008 132.442 7.70341 132.442 9.80341C132.442 11.9034 133.973 13.3034 135.968 13.3034C137.963 13.2567 139.494 11.9034 139.494 9.80341Z" fill="#2E4BDE"/>
<path d="M53.0537 23.9366C53.0537 21.4633 55.0487 19.6433 57.7396 19.6433C60.4306 19.6433 62.4256 21.4633 62.4256 23.9366C62.4256 26.41 60.4306 28.23 57.7396 28.23C55.0487 28.23 53.0537 26.41 53.0537 23.9366ZM61.4977 23.9366C61.4977 21.93 59.9202 20.4366 57.7396 20.4366C55.6055 20.4366 53.9816 21.93 53.9816 23.9366C53.9816 25.9433 55.6055 27.4366 57.7396 27.4366C59.9202 27.4366 61.4977 25.9433 61.4977 23.9366Z" fill="#6D86E2"/>
<path d="M71.1951 25.01C71.1951 26.9233 69.7569 28.23 67.8547 28.23C66.7876 28.23 65.8597 27.81 65.3029 26.97V30.5166H64.375V21.8366H65.2565V23.0966C65.8133 22.2566 66.7412 21.79 67.8547 21.79C69.7569 21.79 71.1951 23.0966 71.1951 25.01ZM70.2672 25.01C70.2672 23.5166 69.2001 22.5366 67.7619 22.5366C66.3236 22.5366 65.2565 23.5166 65.2565 25.01C65.2565 26.5033 66.3236 27.4833 67.7619 27.4833C69.2001 27.4833 70.2672 26.5033 70.2672 25.01Z" fill="#6D86E2"/>
<path d="M76.5756 27.7633C76.2044 28.0433 75.6941 28.23 75.1373 28.23C73.8846 28.23 73.1887 27.5767 73.1887 26.3633V22.5367H71.9824V21.79H73.1887V20.39H74.1166V21.79H76.158V22.5367H74.1166V26.3167C74.1166 27.0633 74.5342 27.4833 75.2765 27.4833C75.6477 27.4833 76.0188 27.39 76.2508 27.1567L76.5756 27.7633Z" fill="#6D86E2"/>
<path d="M78.0146 19.83C78.0146 19.5033 78.293 19.2233 78.6642 19.2233C79.0353 19.2233 79.3137 19.5033 79.3137 19.83C79.3137 20.2033 79.0353 20.4367 78.6642 20.4367C78.293 20.4367 78.0146 20.1567 78.0146 19.83ZM78.2002 21.8367H79.1281V28.1833H78.2002V21.8367Z" fill="#6D86E2"/>
<path d="M92.7218 24.4966V28.1833H91.7939V24.59C91.7939 23.2366 91.098 22.5833 89.8453 22.5833C88.4534 22.5833 87.6183 23.4233 87.6183 24.87V28.1833H86.6904V24.59C86.6904 23.2366 85.9945 22.5833 84.7418 22.5833C83.3963 22.5833 82.5148 23.4233 82.5148 24.87V28.1833H81.5869V21.8366H82.4684V23.0033C82.9324 22.2566 83.8139 21.79 84.9274 21.79C86.0409 21.79 86.9224 22.2566 87.2935 23.1433C87.7575 22.3033 88.7318 21.79 89.9381 21.79C91.6547 21.79 92.7218 22.6766 92.7218 24.4966Z" fill="#6D86E2"/>
<path d="M94.9492 19.83C94.9492 19.5033 95.2276 19.2233 95.5988 19.2233C95.9699 19.2233 96.2483 19.5033 96.2483 19.83C96.2483 20.2033 95.9699 20.4367 95.5988 20.4367C95.274 20.4367 94.9492 20.1567 94.9492 19.83ZM95.1812 21.8367H96.1091V28.1833H95.1812V21.8367Z" fill="#6D86E2"/>
<path d="M103.346 27.4833V28.1833H97.8711V27.6233L102.093 22.5833H97.9639V21.8367H103.253V22.3967L99.031 27.4833H103.346Z" fill="#6D86E2"/>
<path d="M110.862 25.2433H105.248C105.341 26.55 106.408 27.4367 107.893 27.4367C108.728 27.4367 109.424 27.1567 109.934 26.5967L110.444 27.1567C109.841 27.81 108.913 28.1833 107.846 28.1833C105.759 28.1833 104.32 26.83 104.32 24.9633C104.32 23.0967 105.712 21.7433 107.614 21.7433C109.517 21.7433 110.862 23.05 110.862 24.9633C110.862 25.0567 110.862 25.15 110.862 25.2433ZM105.248 24.6367H110.027C109.934 23.3767 108.96 22.5367 107.661 22.5367C106.315 22.49 105.341 23.3767 105.248 24.6367Z" fill="#6D86E2"/>
<path d="M128.492 19.7366L125.477 28.1833H124.502L121.904 20.95L119.26 28.1833H118.285L115.27 19.7366H116.244L118.842 27.0166L121.487 19.7366H122.368L125.013 27.0633L127.611 19.7366H128.492Z" fill="#6D86E2"/>
<path d="M135.359 25.2433H129.745C129.838 26.55 130.905 27.4367 132.39 27.4367C133.225 27.4367 133.921 27.1567 134.431 26.5967L134.942 27.1567C134.338 27.81 133.411 28.1833 132.343 28.1833C130.256 28.1833 128.817 26.83 128.817 24.9633C128.817 23.0967 130.209 21.7433 132.111 21.7433C134.014 21.7433 135.359 23.05 135.359 24.9633C135.359 25.0567 135.359 25.15 135.359 25.2433ZM129.745 24.6367H134.524C134.431 23.3767 133.457 22.5367 132.158 22.5367C130.812 22.49 129.884 23.3767 129.745 24.6367Z" fill="#6D86E2"/>
<path d="M144.035 25.01C144.035 26.9233 142.597 28.23 140.694 28.23C139.581 28.23 138.653 27.7633 138.096 26.9233V28.1833H137.215V19.2233H138.143V23.05C138.699 22.21 139.627 21.79 140.694 21.79C142.597 21.79 144.035 23.0967 144.035 25.01ZM143.107 25.01C143.107 23.5167 142.04 22.5367 140.602 22.5367C139.163 22.5367 138.096 23.5167 138.096 25.01C138.096 26.5033 139.163 27.4833 140.602 27.4833C142.04 27.4833 143.107 26.5033 143.107 25.01Z" fill="#6D86E2"/>
<path d="M144.963 27.4366L145.38 26.7833C145.937 27.2033 146.819 27.4833 147.747 27.4833C149.046 27.4833 149.556 27.0633 149.556 26.4566C149.556 24.8233 145.195 26.0833 145.195 23.61C145.195 22.5833 146.123 21.79 147.839 21.79C148.721 21.79 149.649 22.0233 150.206 22.3966L149.788 23.0966C149.185 22.7233 148.489 22.5366 147.793 22.5366C146.587 22.5366 146.03 23.0033 146.03 23.61C146.03 25.3366 150.391 24.03 150.391 26.4566C150.391 27.5766 149.37 28.2766 147.607 28.2766C146.587 28.23 145.473 27.9033 144.963 27.4366Z" fill="#6D86E2"/>
<path d="M151.922 19.83C151.922 19.5033 152.2 19.2233 152.571 19.2233C152.943 19.2233 153.221 19.5033 153.221 19.83C153.221 20.2033 152.943 20.4367 152.571 20.4367C152.2 20.4367 151.922 20.1567 151.922 19.83ZM152.107 21.8367H153.035V28.1833H152.107V21.8367Z" fill="#6D86E2"/>
<path d="M159.068 27.7633C158.697 28.0433 158.186 28.23 157.629 28.23C156.377 28.23 155.681 27.5767 155.681 26.3633V22.5367H154.475V21.79H155.681V20.39H156.609V21.79H158.65V22.5367H156.609V26.3167C156.609 27.0633 157.026 27.4833 157.769 27.4833C158.14 27.4833 158.511 27.39 158.743 27.1567L159.068 27.7633Z" fill="#6D86E2"/>
<path d="M166.305 25.2433H160.692C160.784 26.55 161.851 27.4367 163.336 27.4367C164.171 27.4367 164.867 27.1567 165.378 26.5967L165.888 27.1567C165.285 27.81 164.357 28.1833 163.29 28.1833C161.202 28.1833 159.764 26.83 159.764 24.9633C159.764 23.0967 161.156 21.7433 163.058 21.7433C164.96 21.7433 166.305 23.05 166.305 24.9633C166.352 25.0567 166.305 25.15 166.305 25.2433ZM160.692 24.6367H165.47C165.378 23.3767 164.403 22.5367 163.104 22.5367C161.759 22.49 160.831 23.3767 160.692 24.6367Z" fill="#6D86E2"/>
<defs>
<linearGradient id="paint0_linear_35_497" x1="1.03421" y1="16.0892" x2="44.0669" y2="16.0892" gradientUnits="userSpaceOnUse">
<stop stop-color="#6D86E2"/>
<stop offset="0.3007" stop-color="#5973E1"/>
<stop offset="1" stop-color="#2E4BDE"/>
</linearGradient>
<linearGradient id="paint1_linear_35_497" x1="0" y1="3.78609" x2="43.9698" y2="3.78609" gradientUnits="userSpaceOnUse">
<stop stop-color="#6D86E2"/>
<stop offset="0.3007" stop-color="#5973E1"/>
<stop offset="1" stop-color="#2E4BDE"/>
</linearGradient>
<linearGradient id="paint2_linear_35_497" x1="0" y1="28.1638" x2="43.9698" y2="28.1638" gradientUnits="userSpaceOnUse">
<stop stop-color="#6D86E2"/>
<stop offset="0.3007" stop-color="#5973E1"/>
<stop offset="1" stop-color="#2E4BDE"/>
</linearGradient>
</defs>
</svg>
